<?xml version="1.0" encoding="UTF-8" standalone="no"?><!DOCTYPE svg PUBLIC "-//W3C//DTD SVG 1.1//EN" "http://www.w3.org/Graphics/SVG/1.1/DTD/svg11.dtd"><svg width="100%" height="100%" viewBox="0 0 969 390" version="1.1" xmlns="http://www.w3.org/2000/svg" xmlns:xlink="http://www.w3.org/1999/xlink" xml:space="preserve" xmlns:serif="http://www.serif.com/" style="fill-rule:evenodd;clip-rule:evenodd;stroke-linejoin:round;stroke-miterlimit:2;"><g><path id="path197566" d="M10.267,301.467c7,15.866 16.333,30.333 28.466,42.466c12.6,12.134 26.6,21.934 42.467,28.467c16.333,7 34.067,10.267 51.8,10.267c17.733,-0 35.467,-3.267 51.8,-10.267c15.867,-6.533 29.867,-16.333 42.467,-28.467c12.133,-12.133 21.466,-26.6 28.466,-42.466c7,-16.334 10.267,-33.6 10.267,-51.8l-0,-226.334l-70,-23.333l-0,132.533c-3.733,-1.866 -7.467,-3.733 -11.2,-5.133c-16.333,-7 -33.6,-10.267 -51.8,-10.267c-17.733,0 -35.467,3.267 -51.8,10.267c-15.867,6.533 -29.867,16.333 -42.467,28.467c-12.133,12.133 -21.466,26.6 -28.466,42.466c-6.534,16.334 -10.267,33.6 -10.267,51.334c-0,18.2 3.733,35.466 10.267,51.8Zm122.733,-114.8c34.533,-0 63,28.466 63,63c-0,35 -28.467,63 -63,63c-34.533,-0 -63,-28 -63,-63c-0,-34.534 28.467,-63 63,-63Z" style="fill:#05dd7c;fill-rule:nonzero;"/><path id="path197568" d="M361.607,379.4l-70.466,0l-0,-269.267l70.466,23.334l0,245.933Z" style="fill:#05dd7c;fill-rule:nonzero;"/><path id="path197570" d="M386.748,379.4l216.533,0l0,-65.333l-115.733,-0l115.733,-145.134l0,-49.466l-209.533,-0l-0,65.333l108.267,0l-115.267,145.133l-0,49.467Z" style="fill:#05dd7c;fill-rule:nonzero;"/><path id="path197572" d="M628.422,379.4l70.467,0l-0,-269.267l-70.467,23.334l-0,245.933Z" style="fill:#05dd7c;fill-rule:nonzero;"/><path id="path197574" d="M868.229,184.8l0,-65.333l-74.2,-0l0,-83.534l-70,23.334l0,181.066c0,19.6 3.734,38.267 11.2,56c7,17.267 17.734,32.667 30.8,45.734c13.067,13.533 28.467,23.8 45.734,31.266c17.733,7.467 36.866,11.2 56.466,11.2l0,-70c-41.066,0 -74.2,-33.133 -74.2,-74.2l0,-55.533l74.2,0Z" style="fill:#05dd7c;fill-rule:nonzero;"/><circle cx="930.87" cy="351.633" r="37.5" style="fill:#87f6ad;"/></g></svg>